<svg width="50" height="39" viewBox="0 0 50 39" fill="none" xmlns="http://www.w3.org/2000/svg">
    <path d="M45.8333 0.75H4.16667C1.875 0.75 0 2.625 0 4.91667V34.0833C0 36.375 1.875 38.25 4.16667 38.25H45.8333C48.125 38.25 49.9792 36.375 49.9792 34.0833L50 4.91667C50 2.625 48.125 0.75 45.8333 0.75ZM16.6667 7C20.125 7 22.9167 9.79167 22.9167 13.25C22.9167 16.7083 20.125 19.5 16.6667 19.5C13.2083 19.5 10.4167 16.7083 10.4167 13.25C10.4167 9.79167 13.2083 7 16.6667 7ZM29.1667 32H4.16667V29.9167C4.16667 25.75 12.5 23.4583 16.6667 23.4583C20.8333 23.4583 29.1667 25.75 29.1667 29.9167V32ZM37.1875 23.6667H40.6042L43.75 27.8333L39.6042 31.9792C36.875 29.9375 34.8542 27.0208 33.9167 23.6667C33.5417 22.3333 33.3333 20.9375 33.3333 19.5C33.3333 18.0625 33.5417 16.6667 33.9167 15.3333C34.8542 11.9583 36.875 9.0625 39.6042 7.02083L43.75 11.1667L40.6042 15.3333H37.1875C36.7292 16.6458 36.4583 18.0417 36.4583 19.5C36.4583 20.9583 36.7292 22.3542 37.1875 23.6667Z" fill="#8EFF95"/>
</svg>
