<svg width="75" height="75" viewBox="0 0 75 75" fill="none" xmlns="http://www.w3.org/2000/svg">
<path d="M61.1797 3H13.706C7.79323 3 3 7.79324 3 13.706V61.1797C3 67.0925 7.79323 71.8857 13.706 71.8857H61.1797C67.0925 71.8857 71.8857 67.0925 71.8857 61.1797V13.706C71.8857 7.79324 67.0925 3 61.1797 3Z" stroke="#90A9B4" stroke-width="4.44155"/>
<path d="M48.7874 39.416L31.8602 58.4026C31.7956 58.4816 31.6736 58.4098 31.688 58.3094L33.9555 42.2575C33.9626 42.2073 33.9339 42.1571 33.8909 42.1356L22.4601 37.5217C22.3884 37.493 22.374 37.3925 22.4243 37.3351L43.0828 16.49C43.1546 16.4182 43.2622 16.49 43.2479 16.5904L40.9875 30.303C40.9804 30.3532 41.0091 30.4106 41.0521 30.425L52.49 35.0461" stroke="#90A9B4" stroke-width="6" stroke-linecap="round" stroke-linejoin="round"/>
</svg>
