<svg width="201" height="90" viewBox="0 0 201 90" fill="none" xmlns="http://www.w3.org/2000/svg">
<rect x="1" y="0.5" width="199" height="89" rx="7.5" fill="#F9F9F2"/>
<path d="M74.6903 51.4767V51.7214C74.6903 52.0271 74.5069 52.2106 74.2011 52.2106H66.8632C66.5575 52.2106 66.374 52.0271 66.374 51.7214V38.6346C66.374 38.3288 66.5575 38.1454 66.8632 38.1454H73.8342C74.14 38.1454 74.3234 38.3288 74.3234 38.6346V38.8792C74.3234 39.185 74.14 39.3684 73.8342 39.3684H67.7805V44.5053H72.6112C72.917 44.5053 73.1004 44.6888 73.1004 44.9945V45.2391C73.1004 45.5449 72.917 45.7284 72.6112 45.7284H67.7805V50.9875H74.2011C74.5069 50.9875 74.6903 51.171 74.6903 51.4767ZM82.1505 41.8757C79.7657 41.8757 78.4816 43.588 78.0535 44.5053H77.9924C77.9924 44.5053 78.0535 44.1995 78.0535 43.7715V42.6095C78.0535 42.3038 77.8701 42.1203 77.5643 42.1203H77.1974C76.8917 42.1203 76.7082 42.3038 76.7082 42.6095V51.7214C76.7082 52.0271 76.8917 52.2106 77.1974 52.2106H77.5643C77.8701 52.2106 78.0535 52.0271 78.0535 51.7214V47.3183C78.0535 44.9945 79.7657 43.2211 81.9059 43.2211C83.8627 43.2211 84.1073 44.6276 84.1073 46.2176V51.7825C84.1073 52.0883 84.2907 52.2717 84.5965 52.2717H84.9634C85.2691 52.2717 85.4526 52.0883 85.4526 51.7825V45.8507C85.5137 43.2822 84.6576 41.8757 82.1505 41.8757ZM96.3983 46.7068C96.3983 47.0126 96.1537 47.196 95.8479 47.196H88.5712C88.6323 49.7645 90.4057 51.2321 92.4847 51.2321C93.7689 51.2321 94.6861 50.6818 95.1141 50.3148C95.4199 50.1314 95.6033 50.1925 95.7868 50.4371L95.9702 50.6818C96.0925 50.9264 96.0925 51.171 95.8479 51.3544C95.2976 51.7825 94.0746 52.4552 92.4847 52.4552C89.4884 52.4552 87.2259 50.3148 87.2259 47.196C87.2259 43.8938 89.4884 41.8757 92.179 41.8757C94.8695 41.8757 96.3983 43.8326 96.3983 46.7068ZM94.9918 46.1564C94.9307 44.0161 93.6466 42.9765 92.1178 42.9765C90.4057 42.9765 88.9381 44.0772 88.6323 46.1564H94.9918ZM103.125 42.0592C101.535 42.0592 100.373 43.3434 99.8838 44.8111H99.8226C99.8226 44.8111 99.8838 44.4441 99.8838 44.0161V42.6707C99.8838 42.3649 99.7003 42.1815 99.3946 42.1815H99.0277C98.7219 42.1815 98.5385 42.3649 98.5385 42.6707V51.7825C98.5385 52.0883 98.7219 52.2717 99.0277 52.2717H99.3946C99.7003 52.2717 99.8838 52.0883 99.8838 51.7825V47.991C99.8838 45.9118 100.923 43.4657 103.064 43.4657C103.43 43.4657 103.614 43.2822 103.614 42.9765V42.6095C103.675 42.2426 103.492 42.0592 103.125 42.0592ZM112.97 42.6095V51.966C112.97 55.1459 110.585 56.4301 108.2 56.4301C107.161 56.4301 106.121 56.1855 105.265 55.8186C104.959 55.6963 104.898 55.4517 105.02 55.2071L105.143 54.9013C105.265 54.6567 105.448 54.5344 105.754 54.6567C106.182 54.8402 106.977 55.2071 108.078 55.2071C109.973 55.2071 111.563 54.2898 111.563 52.0271V50.9875C111.563 50.6206 111.624 50.2537 111.624 50.2537C111.013 51.4156 109.973 52.1494 108.445 52.1494C105.754 52.1494 103.981 50.0091 103.981 46.8903C103.981 43.8938 105.632 41.8757 108.445 41.8757C111.074 41.8757 111.747 43.7103 111.747 43.7103H111.808C111.808 43.7103 111.747 43.588 111.747 43.3434V42.5484C111.747 42.3038 111.93 42.1203 112.236 42.1203H112.542C112.786 42.1203 112.97 42.3038 112.97 42.6095ZM111.624 47.0126C111.624 44.0161 110.157 43.0988 108.506 43.0988C106.488 43.0988 105.326 44.5664 105.326 46.8903C105.326 49.3975 106.61 50.9264 108.628 50.9264C110.218 50.9264 111.624 49.9479 111.624 47.0126ZM122.998 42.1203H122.57C122.264 42.1203 122.081 42.2426 122.02 42.5484L119.268 49.5198C119.085 50.0091 118.901 50.5594 118.901 50.5594H118.84C118.84 50.5594 118.657 50.0091 118.473 49.5198L115.66 42.4872C115.538 42.2426 115.416 42.1203 115.11 42.1203H114.621C114.254 42.1203 114.07 42.3649 114.254 42.7319L118.229 52.1494L117.617 53.5559C117.25 54.4121 116.639 55.2071 115.721 55.2071C115.355 55.2071 115.049 55.0236 114.865 54.9625C114.621 54.9013 114.376 54.9625 114.254 55.2071L114.132 55.4517C114.009 55.6963 114.07 56.0021 114.376 56.0632C114.682 56.2467 115.171 56.4301 115.783 56.4301C117.128 56.4301 118.167 55.574 118.718 54.2898L123.487 42.7319C123.549 42.3649 123.365 42.1203 122.998 42.1203ZM132.66 50.0091H127.34V38.8181C127.34 38.2677 127.034 37.9619 126.545 37.9619H125.628C125.077 37.9619 124.833 38.2677 124.833 38.8181V51.3544C124.833 51.9048 125.138 52.2106 125.628 52.2106H132.66C133.21 52.2106 133.516 51.9048 133.516 51.3544V50.8041C133.516 50.2537 133.271 50.0091 132.66 50.0091ZM144.89 47.0737C144.89 50.2537 142.382 52.4552 139.264 52.4552C136.145 52.4552 133.638 50.2537 133.638 47.0737C133.638 43.9549 136.145 41.6923 139.264 41.6923C142.382 41.7534 144.89 43.9549 144.89 47.0737ZM142.321 47.0737C142.321 45.178 140.915 43.8938 139.264 43.8938C137.613 43.8938 136.206 45.178 136.206 47.0737C136.206 48.9695 137.552 50.2537 139.264 50.2537C140.915 50.3148 142.321 49.0306 142.321 47.0737ZM154.918 49.7645C154.673 49.2752 154.307 49.2141 153.756 49.5198C153.267 49.8868 152.472 50.3148 151.494 50.3148C149.537 50.3148 148.314 48.8472 148.314 47.1349C148.314 45.3614 149.537 43.9549 151.433 43.9549C152.289 43.9549 153.022 44.3218 153.389 44.5664C153.879 44.8111 154.184 44.8111 154.49 44.3218L154.735 43.8938C155.04 43.4657 154.979 43.0376 154.551 42.7319C153.94 42.3038 152.839 41.6923 151.188 41.6923C147.825 41.6923 145.623 44.1384 145.623 47.0737C145.623 50.0702 147.764 52.4552 151.188 52.4552C152.961 52.4552 154.184 51.7214 154.796 51.2933C155.224 50.9875 155.285 50.6206 155.04 50.1925L154.918 49.7645ZM165.191 45.7895V51.3544C165.191 51.9048 164.885 52.2106 164.335 52.2106H163.662C163.112 52.2106 162.867 51.9048 162.867 51.3544V50.9264C162.867 50.6206 162.929 50.4983 162.929 50.4983H162.867C162.867 50.4983 161.889 52.394 159.688 52.394C157.792 52.394 156.324 51.171 156.324 49.3364C156.324 46.3399 159.993 45.8507 162.317 45.8507H162.745V45.606C162.745 44.2607 161.889 43.7715 160.85 43.7715C159.993 43.7715 159.198 44.0772 158.709 44.383C158.22 44.6276 157.853 44.5053 157.609 44.0161L157.425 43.6491C157.181 43.1599 157.242 42.793 157.731 42.5484C158.404 42.1815 159.565 41.6923 161.094 41.6923C163.601 41.7534 165.191 43.2211 165.191 45.7895ZM162.623 47.4406H162.195C160.911 47.4406 158.709 47.6241 158.709 49.1529C158.709 49.8256 159.26 50.4983 160.238 50.4983C161.644 50.4983 162.562 49.0306 162.562 47.8076V47.4406H162.623ZM170.083 50.0702C169.716 50.0091 169.288 49.8256 169.288 48.8472V38.8181C169.288 38.2677 168.982 37.9619 168.493 37.9619H167.637C167.087 37.9619 166.842 38.2677 166.842 38.8181V49.0306C166.842 51.966 168.615 52.3329 169.961 52.3329C170.572 52.3329 170.817 51.966 170.817 51.4767V50.8041C170.756 50.3148 170.45 50.0702 170.083 50.0702ZM174.425 44.8111C174.425 44.1995 174.914 43.8326 175.831 43.8326C176.687 43.8326 177.36 44.1384 177.788 44.3218C178.277 44.5664 178.644 44.5053 178.889 44.0161L179.072 43.6491C179.317 43.1599 179.255 42.793 178.766 42.5484C178.216 42.2426 177.299 41.8146 175.892 41.8146C173.752 41.8146 171.979 42.8542 171.979 44.8722C171.979 48.3579 177.054 47.7464 177.054 49.3975C177.054 50.0091 176.504 50.4371 175.648 50.4371C174.608 50.4371 173.813 50.0091 173.385 49.7645C172.896 49.5198 172.529 49.5198 172.223 49.9479L171.979 50.3148C171.673 50.7429 171.734 51.171 172.162 51.4767C172.774 51.9048 173.935 52.5163 175.586 52.5163C177.971 52.5163 179.5 51.171 179.5 49.3975C179.5 45.7895 174.425 46.4622 174.425 44.8111Z" fill="#373737"/>
<path d="M43.3819 55.5742C41.5474 53.9842 41.3028 51.1711 42.9538 49.3365C44.5437 47.5019 47.3566 47.2573 49.191 48.9085C51.0255 50.4984 51.2701 53.3115 49.6191 55.1461C48.0292 56.9807 45.2775 57.1641 43.3819 55.5742Z" fill="#D91F4E"/>
<path d="M50.5975 32.8254C52.1874 30.9908 54.9391 30.8073 56.7736 32.3973C58.6081 33.9873 58.7915 36.7392 57.2016 38.5738C55.6118 40.4084 52.86 40.5918 51.0256 39.0018C49.2522 37.4119 49.0076 34.66 50.5975 32.8254ZM51.3313 40.653C47.4178 39.063 43.0762 39.7357 39.8964 42.4876C38.6123 43.5883 38.49 45.5452 39.5907 46.7683C40.6914 48.0525 42.6481 48.1748 43.8711 47.074C45.2775 45.851 47.2955 45.5452 49.0076 46.2179C50.781 46.9517 51.9428 48.664 52.0651 50.5598C52.1263 52.2109 53.5327 53.4951 55.1837 53.4951H55.2449C56.957 53.434 58.2412 51.9663 58.18 50.3152C57.9354 46.0956 55.2449 42.2429 51.3313 40.653Z" fill="#F16723"/>
<path d="M45.0329 38.5735C41.4863 39.1239 38.3677 41.2031 36.472 44.1996C34.1484 47.8076 34.4541 50.9265 36.2886 54.7791C37.2058 56.7971 36.3497 59.1821 34.3318 60.0994C33.7203 60.4052 33.0477 60.5275 32.4362 60.4663C31.0298 60.4052 29.6845 59.549 29.0118 58.1425C26.0155 51.8437 25.9544 45.8507 29.6845 39.9189C32.8642 34.9655 38.0008 31.6021 43.8099 30.6848C46.0113 30.3179 48.0292 31.8467 48.3961 34.0482C48.7019 36.1886 47.2343 38.2066 45.0329 38.5735ZM28.8284 31.2963C26.8105 29.4617 23.6919 29.584 21.7962 31.6021C19.9618 33.6201 20.0841 36.7389 22.102 38.6347C24.1199 40.4693 27.2385 40.347 29.1341 38.3289C30.9686 36.3109 30.8463 33.1309 28.8284 31.2963Z" fill="#FCB415"/>
<rect x="1" y="0.5" width="199" height="89" rx="7.5" stroke="#2C5D60"/>
</svg>
