<svg width="75" height="75" viewBox="0 0 75 75" fill="none" xmlns="http://www.w3.org/2000/svg">
<path d="M61.1797 3H13.706C7.79323 3 3 7.79324 3 13.706V61.1797C3 67.0925 7.79323 71.8857 13.706 71.8857H61.1797C67.0925 71.8857 71.8857 67.0925 71.8857 61.1797V13.706C71.8857 7.79324 67.0925 3 61.1797 3Z" stroke="#90A9B4" stroke-width="4.44155"/>
<path d="M53.4989 38.4511C50.1088 29.6412 38.0385 29.1662 40.9535 16.3617C41.1694 15.4116 40.1546 14.6774 39.334 15.174C31.4958 19.7949 25.8601 29.0582 30.5889 41.1934C30.9776 42.1867 29.8116 43.1151 28.9695 42.4674C25.0612 39.5091 24.6509 35.2554 24.9964 32.2108C25.126 31.0879 23.6576 30.5481 23.0315 31.4766C21.5631 33.7223 20.0732 37.3499 20.0732 42.8128C20.8938 54.9048 31.1072 58.6188 34.7779 59.0938C40.025 59.7632 45.7039 58.7915 49.785 55.056C54.2763 50.8886 55.9173 44.238 53.4989 38.4511ZM33.4608 49.3123C36.5702 48.5565 38.168 46.3109 38.5999 44.3243C39.3124 41.2366 36.527 38.2136 38.4055 33.3336C39.1181 37.3715 45.4664 39.8978 45.4664 44.3028C45.6391 49.7657 39.7227 54.4514 33.4608 49.3123Z" fill="#90A9B4"/>
</svg>
