<svg width="200" height="90" viewBox="0 0 200 90" fill="none" xmlns="http://www.w3.org/2000/svg">
<rect x="0.5" y="0.5" width="199" height="89" rx="7.5" fill="#F9F9F2"/>
<mask id="mask0_1149_1843" style="mask-type:luminance" maskUnits="userSpaceOnUse" x="35" y="30" width="131" height="30">
<path d="M165.226 30H35V59.9998H165.226V30Z" fill="white"/>
</mask>
<g mask="url(#mask0_1149_1843)">
<path fill-rule="evenodd" clip-rule="evenodd" d="M39.0665 32.6602C40.101 32.6602 41.1354 33.0667 41.9279 33.8515C43.1392 35.056 43.4156 36.608 42.7969 38.1363C42.4302 39.0673 41.5504 39.8575 40.9731 40.8108C40.323 41.8644 39.9884 42.7051 39.9042 44.5182V44.5442C39.9884 46.3543 40.323 47.2027 40.9731 48.2432C41.5504 49.2072 42.4302 49.979 42.7969 50.9254C43.4156 52.4567 43.1392 53.9912 41.9279 55.2078C41.1354 55.9873 40.101 56.3916 39.0665 56.3916H39.0474C38.0145 56.3916 36.9808 55.9873 36.1891 55.2078C34.9771 53.9912 34.7045 52.4567 35.3124 50.9254C35.6838 49.979 36.5689 49.2072 37.1531 48.2432C37.7909 47.2027 38.1271 46.3543 38.2128 44.5442V44.5182C38.1271 42.7051 37.7909 41.8644 37.1531 40.8108C36.5689 39.8575 35.6838 39.0673 35.3124 38.1363C34.7045 36.608 34.9771 35.056 36.1891 33.8515C36.9808 33.0667 38.0145 32.6602 39.0474 32.6602H39.0665Z" fill="#59E0FF"/>
<path fill-rule="evenodd" clip-rule="evenodd" d="M43.9732 41.6719C45.5543 40.0846 48.1277 40.0846 49.7142 41.6642C51.303 43.2515 51.303 45.8341 49.7142 47.4221C48.1277 49.0124 45.5543 49.0124 43.9732 47.4221C42.3813 45.8341 42.3813 43.2515 43.9732 41.6719Z" fill="#59E0FF"/>
<path fill-rule="evenodd" clip-rule="evenodd" d="M54.6345 32.6602C55.6712 32.6602 56.7057 33.0667 57.4928 33.8515C58.7003 35.056 58.9797 36.608 58.3725 38.1363C57.9981 39.0673 57.1161 39.8575 56.5265 40.8108C55.894 41.8644 55.561 42.7051 55.4645 44.5182V44.5442C55.561 46.3543 55.894 47.2027 56.5265 48.2432C57.1161 49.2072 57.9981 49.979 58.3725 50.9254C58.9797 52.4567 58.7003 53.9912 57.4928 55.2078C56.711 55.9873 55.6712 56.3916 54.6345 56.3916H54.6131C53.5809 56.3916 52.5396 55.9873 51.7517 55.2078C50.545 53.9912 50.2732 52.4567 50.8796 50.9254C51.2471 49.979 52.1369 49.2072 52.7211 48.2432C53.3558 47.2027 53.6889 46.3543 53.7808 44.5442V44.5182C53.6889 42.7051 53.3558 41.8644 52.7211 40.8108C52.1369 39.8575 51.2471 39.0673 50.8796 38.1363C50.2732 36.608 50.545 35.056 51.7517 33.8515C52.5396 33.0667 53.5809 32.6602 54.6131 32.6602H54.6345Z" fill="#59E0FF"/>
<path fill-rule="evenodd" clip-rule="evenodd" d="M69.4384 32.9894L69.5848 34.0843C70.3252 33.2796 71.5418 32.6602 72.8022 32.6602C74.1222 32.6602 75.0111 33.2796 75.4445 34.1035C76.3503 33.2168 77.5256 32.6602 78.8694 32.6602C81.0133 32.6602 82.1082 33.8355 82.1082 36.3729V42.9968H80.2308V36.745C80.2308 35.8775 80.1273 35.363 79.8158 34.9932C79.5485 34.6616 79.1135 34.4342 78.3555 34.4342C77.5485 34.4342 76.5968 34.8485 75.854 35.6754C75.8977 36.0421 75.8978 36.4771 75.8978 36.8905V42.9968H74.0187V36.8476C74.0187 35.4449 73.8144 34.4342 72.306 34.4342C71.3987 34.4342 70.3909 34.9932 69.7263 35.7726V42.9968H67.8521V32.9894H69.4384Z" fill="#364040"/>
<path fill-rule="evenodd" clip-rule="evenodd" d="M86.0681 38.0035C86.0681 40.5188 86.915 41.7408 88.7319 41.7408C90.545 41.7408 91.3697 40.5188 91.3697 38.0035C91.3697 35.4645 90.545 34.2479 88.7319 34.2479C86.915 34.2479 86.0681 35.4645 86.0681 38.0035ZM84.104 37.9607C84.104 34.5757 85.6323 32.6592 88.7057 32.6592C91.8044 32.6592 93.3289 34.5573 93.3289 37.9431V38.0289C93.3289 41.4093 91.8044 43.3297 88.7057 43.3297C85.6323 43.3297 84.104 41.4093 84.104 38.0289V37.9607Z" fill="#364040"/>
<path fill-rule="evenodd" clip-rule="evenodd" d="M96.8778 32.9894L97.0202 34.0843C97.7652 33.2796 98.9834 32.6602 100.241 32.6602C101.561 32.6602 102.449 33.2796 102.884 34.1035C103.788 33.2168 104.97 32.6602 106.307 32.6602C108.451 32.6602 109.546 33.8355 109.546 36.3729V42.9968H107.669V36.745C107.669 35.8775 107.562 35.363 107.254 34.9932C106.988 34.6616 106.555 34.4342 105.793 34.4342C104.985 34.4342 104.038 34.8485 103.293 35.6754C103.337 36.0421 103.337 36.4771 103.337 36.8905V42.9968H101.457V36.8476C101.457 35.4449 101.251 34.4342 99.746 34.4342C98.8394 34.4342 97.828 34.9932 97.1649 35.7726V42.9968H95.2905V32.9894H96.8778Z" fill="#364040"/>
<path fill-rule="evenodd" clip-rule="evenodd" d="M118.291 37.3634C118.229 35.5059 117.654 34.2479 116.02 34.2479C114.269 34.2479 113.568 35.6766 113.504 37.3634H118.291ZM111.544 38.0044C111.544 35.1155 112.928 32.6592 116.042 32.6592C118.91 32.6592 120.23 34.5366 120.23 38.0289C120.23 38.2739 120.23 38.5197 120.208 38.7693H113.526C113.671 40.6452 114.556 41.7164 116.457 41.7164C117.487 41.7164 118.685 41.4683 119.449 41.1406L119.611 42.6658C118.705 43.0992 117.526 43.3266 116.411 43.3266C113.194 43.3266 111.544 41.5724 111.544 38.0449V38.0044Z" fill="#364040"/>
<path fill-rule="evenodd" clip-rule="evenodd" d="M123.818 32.9894L123.964 34.1463C124.79 33.2995 126.048 32.6602 127.472 32.6602C128.545 32.6602 129.35 32.9473 129.885 33.5032C130.504 34.1257 130.731 35.0131 130.731 36.4985V42.9968H128.852V36.7879C128.852 35.8369 128.751 35.301 128.423 34.9074C128.111 34.5782 127.64 34.4128 126.957 34.4128C125.986 34.4128 124.831 34.9074 124.068 35.7558V42.9968H122.188V32.9894H123.818Z" fill="#364040"/>
<mask id="mask1_1149_1843" style="mask-type:alpha" maskUnits="userSpaceOnUse" x="132" y="30" width="7" height="14">
<path fill-rule="evenodd" clip-rule="evenodd" d="M138.259 30H132.382V43.3257H138.259V30Z" fill="white"/>
</mask>
<g mask="url(#mask1_1149_1843)">
<path fill-rule="evenodd" clip-rule="evenodd" d="M135.742 30V32.99H138.2L138.095 34.5167H135.742V39.7578C135.742 41.4277 136.176 41.8006 137.311 41.8006C137.618 41.8006 137.993 41.7585 138.223 41.7179L138.259 43.201C137.892 43.2853 137.311 43.3258 137.065 43.3258C134.569 43.3258 133.867 42.2133 133.867 39.9423V34.5167H132.382V32.99H133.867V30.268L135.742 30Z" fill="#364040"/>
</g>
<path fill-rule="evenodd" clip-rule="evenodd" d="M142.181 32.9902V38.6249C142.181 39.6991 142.223 40.1692 142.388 40.6447C142.675 41.467 143.502 41.7404 144.449 41.7404C145.422 41.7404 146.225 41.467 146.511 40.6447C146.679 40.1692 146.72 39.6991 146.72 38.6249V32.9902H148.599V38.8722C148.599 42.1301 147.505 43.3261 144.449 43.3261C141.416 43.3261 140.303 42.1301 140.303 38.8722V32.9902H142.181Z" fill="#364040"/>
<mask id="mask2_1149_1843" style="mask-type:alpha" maskUnits="userSpaceOnUse" x="150" y="32" width="16" height="11">
<path fill-rule="evenodd" clip-rule="evenodd" d="M165.226 42.9968V32.6602H150.969V42.9968H165.226Z" fill="white"/>
</mask>
<g mask="url(#mask2_1149_1843)">
<path fill-rule="evenodd" clip-rule="evenodd" d="M152.559 32.9894L152.702 34.0843C153.444 33.2796 154.662 32.6602 155.92 32.6602C157.241 32.6602 158.126 33.2796 158.561 34.1035C159.466 33.2168 160.644 32.6602 161.987 32.6602C164.133 32.6602 165.226 33.8355 165.226 36.3729V42.9968H163.346V36.745C163.346 35.8775 163.246 35.363 162.934 34.9932C162.666 34.6616 162.233 34.4342 161.471 34.4342C160.667 34.4342 159.718 34.8485 158.975 35.6754C159.015 36.0421 159.015 36.4771 159.015 36.8905V42.9968H157.138V36.8476C157.138 35.4449 156.929 34.4342 155.425 34.4342C154.517 34.4342 153.507 34.9932 152.847 35.7726V42.9968H150.969V32.9894H152.559Z" fill="#364040"/>
</g>
<path fill-rule="evenodd" clip-rule="evenodd" d="M73.514 51.7113C73.4612 50.1661 72.9819 49.1187 71.6266 49.1187C70.1665 49.1187 69.5846 50.3055 69.5356 51.7113H73.514ZM67.9062 52.2441C67.9062 49.8437 69.0525 47.7979 71.6405 47.7979C74.0255 47.7979 75.1228 49.3621 75.1228 52.2595C75.1228 52.4654 75.1229 52.6744 75.1091 52.8735H69.5486C69.6681 54.4355 70.4078 55.3313 71.9874 55.3313C72.8442 55.3313 73.8418 55.1239 74.4712 54.8482L74.6143 56.12C73.8571 56.4806 72.8764 56.6743 71.9514 56.6743C69.2754 56.6743 67.9062 55.2119 67.9062 52.2786V52.2441Z" fill="#364040"/>
<path fill-rule="evenodd" clip-rule="evenodd" d="M78.2864 48.0735L78.3982 49.0321C79.0888 48.3354 80.1324 47.7979 81.3215 47.7979C82.2135 47.7979 82.8789 48.0398 83.3291 48.5023C83.8391 49.0191 84.0282 49.7549 84.0282 50.9915V56.3918H82.4708V51.2327C82.4708 50.4417 82.3805 49.9984 82.1117 49.6646C81.8552 49.3958 81.4609 49.2572 80.8912 49.2572C80.085 49.2572 79.1248 49.6646 78.4901 50.3759V56.3918H76.9258V48.0735H78.2864Z" fill="#364040"/>
<path fill-rule="evenodd" clip-rule="evenodd" d="M91.4266 51.7113C91.3738 50.1661 90.8929 49.1187 89.543 49.1187C88.0821 49.1187 87.4956 50.3055 87.4443 51.7113H91.4266ZM85.8174 52.2441C85.8174 49.8437 86.969 47.7979 89.5562 47.7979C91.9405 47.7979 93.0385 49.3621 93.0385 52.2595C93.0385 52.4654 93.0385 52.6744 93.0232 52.8735H87.4621C87.5846 54.4355 88.3204 55.3313 89.8984 55.3313C90.7606 55.3313 91.7552 55.1239 92.3892 54.8482L92.527 56.12C91.7721 56.4806 90.7912 56.6743 89.8625 56.6743C87.1895 56.6743 85.8174 55.2119 85.8174 52.2786V52.2441Z" fill="#364040"/>
<path fill-rule="evenodd" clip-rule="evenodd" d="M96.1971 48.0739C96.3334 49.2216 96.3158 49.2216 96.3334 49.2216C96.9008 48.5027 97.8426 47.9376 99.0079 47.8848C99.0079 48.1436 98.9903 49.2079 98.9903 49.4644C97.9161 49.4797 97.0034 49.91 96.3977 50.5087V56.3922H94.8403V48.0739H96.1971Z" fill="#364040"/>
<mask id="mask3_1149_1843" style="mask-type:alpha" maskUnits="userSpaceOnUse" x="100" y="47" width="8" height="13">
<path fill-rule="evenodd" clip-rule="evenodd" d="M100.211 59.9995H107.779V47.3369H100.211V59.9995Z" fill="white"/>
</mask>
<g mask="url(#mask3_1149_1843)">
<path fill-rule="evenodd" clip-rule="evenodd" d="M102.304 56.3102C101.995 56.6502 101.84 57.1196 101.84 57.579C101.84 58.3163 102.389 58.8163 103.729 58.8163C104.98 58.8163 105.809 58.3538 105.809 57.4595C105.809 57.1196 105.737 56.8577 105.427 56.664C105.172 56.4802 104.622 56.3922 103.678 56.3577L102.304 56.3102ZM103.59 52.4805C104.88 52.4805 105.363 51.933 105.363 50.7347C105.363 49.551 104.88 48.9852 103.59 48.9852C102.34 48.9852 101.84 49.551 101.84 50.7347C101.84 51.933 102.34 52.4805 103.59 52.4805ZM100.211 50.6982C100.211 48.709 101.652 47.7979 103.59 47.7979C104.522 47.7979 105.257 48.0015 105.894 48.3997C106.151 48.075 106.734 47.4747 107.779 47.3369V48.8147C107.402 48.8499 106.902 48.9318 106.563 49.1355C106.833 49.5505 106.989 50.0604 106.989 50.6982V50.7863C106.989 52.8919 105.397 53.6637 103.59 53.6637C103.214 53.6637 102.866 53.6315 102.507 53.5481C102.323 53.9577 102.101 54.4914 101.965 54.9018L103.916 54.95C105.173 54.9837 106.01 55.1744 106.491 55.5549C106.957 55.8987 107.261 56.4967 107.261 57.2517C107.261 59.1391 105.655 59.9997 103.59 59.9997C101.482 59.9997 100.351 59.1904 100.351 57.9048C100.351 57.306 100.62 56.6636 101.121 56.2081C100.591 56.1874 100.314 55.8643 100.314 55.4531C100.314 54.95 100.982 53.8896 101.497 53.2012C100.711 52.7571 100.211 51.9325 100.211 50.7863V50.6982Z" fill="#364040"/>
</g>
<path fill-rule="evenodd" clip-rule="evenodd" d="M110.695 48.0732V52.9629C110.695 54.3893 111.144 55.0179 112.375 55.0179C113.043 55.0179 113.82 54.8212 114.47 54.3541V48.0732H116.029V54.1673C116.029 54.766 116.029 55.3617 116.012 55.9329C115.945 58.4558 114.917 59.9964 111.813 59.9964C111.505 59.9964 111.009 59.9489 110.609 59.8777L110.714 58.6733C110.972 58.7108 111.349 58.7483 111.638 58.7483C113.406 58.7483 114.47 58.2146 114.47 56.1534V55.7116C113.731 56.2254 112.894 56.4804 111.983 56.4804C110.231 56.4804 109.134 55.5554 109.134 53.1673V48.0732H110.695Z" fill="#364040"/>
</g>
<rect x="0.5" y="0.5" width="199" height="89" rx="7.5" stroke="#2C5D60"/>
</svg>
