<svg width="200" height="90" viewBox="0 0 200 90" fill="none" xmlns="http://www.w3.org/2000/svg">
<rect x="0.5" y="0.5" width="199" height="89" rx="7.5" fill="#F9F9F2"/>
<mask id="mask0_1149_1883" style="mask-type:luminance" maskUnits="userSpaceOnUse" x="24" y="25" width="152" height="41">
<path d="M176 25H24V65.2976H176V25Z" fill="white"/>
</mask>
<g mask="url(#mask0_1149_1883)">
<path d="M175.1 38.1325C175.277 38.2046 175.439 38.3117 175.575 38.4474C175.71 38.583 175.817 38.7446 175.889 38.9225C176.043 39.2981 176.043 39.7192 175.889 40.0948C175.817 40.2725 175.71 40.4337 175.574 40.5688C175.438 40.704 175.277 40.8114 175.1 40.8848C174.722 41.0385 174.3 41.0385 173.922 40.8848C173.745 40.8122 173.584 40.7047 173.449 40.5688C173.241 40.3555 173.101 40.0864 173.045 39.7944C172.989 39.5025 173.019 39.2005 173.133 38.9256C173.207 38.7492 173.314 38.5883 173.449 38.4517C173.584 38.3154 173.745 38.2079 173.922 38.1357C174.3 37.9841 174.722 37.9841 175.1 38.1357V38.1325ZM174.008 38.3332C173.858 38.3961 173.722 38.4885 173.608 38.605C173.494 38.7214 173.405 38.8594 173.346 39.011C173.283 39.1698 173.251 39.3393 173.253 39.5102C173.251 39.6821 173.283 39.8526 173.346 40.0126C173.41 40.1669 173.504 40.307 173.622 40.4247C173.741 40.5424 173.882 40.6355 174.036 40.6985C174.191 40.7615 174.357 40.7933 174.524 40.7919C174.691 40.7905 174.856 40.756 175.009 40.6904C175.159 40.6257 175.295 40.5329 175.409 40.4171C175.522 40.3001 175.611 40.1629 175.673 40.0126C175.737 39.8529 175.769 39.6823 175.768 39.5102C175.772 39.1731 175.643 38.8479 175.409 38.6049C175.295 38.4895 175.159 38.3972 175.009 38.3332C174.689 38.2004 174.329 38.2004 174.008 38.3332ZM173.968 40.3713V38.6492H174.629C174.781 38.6356 174.933 38.6796 175.055 38.7724C175.102 38.818 175.138 38.8733 175.162 38.9345C175.185 38.9956 175.194 39.0611 175.19 39.1263C175.191 39.1933 175.179 39.2599 175.155 39.3222C175.135 39.3756 175.103 39.424 175.063 39.4644C175.022 39.5027 174.976 39.5338 174.924 39.556C174.874 39.579 174.821 39.5955 174.766 39.605L175.28 40.3713H175.03L174.545 39.605H174.189V40.3713H173.968ZM174.651 39.4233C174.708 39.4194 174.764 39.4077 174.818 39.3886C174.865 39.3703 174.906 39.339 174.935 39.2985C174.967 39.2474 174.982 39.1879 174.979 39.1279C174.981 39.0761 174.969 39.0249 174.945 38.9794C174.922 38.9422 174.891 38.9113 174.853 38.8893C174.812 38.8661 174.768 38.8506 174.722 38.8435C174.67 38.8341 174.617 38.8298 174.564 38.8308H174.177V39.4281H174.457C174.522 39.4281 174.585 39.4281 174.646 39.4281" fill="black"/>
<path d="M91.9716 37.7671C90.8941 37.7671 89.7266 38.0183 88.3015 38.5571L88.1245 38.625L88.1529 38.813C88.2242 39.2494 88.2659 39.6902 88.2778 40.1322V54.0356H90.0599V49.0462C90.7232 49.3097 91.4302 49.4464 92.1438 49.4491C95.5675 49.4491 97.3576 46.4993 97.3576 43.5875C97.3576 40.1117 95.1915 37.7671 91.9701 37.7671H91.9716ZM91.9069 47.8375C91.2648 47.8203 90.6342 47.6622 90.0599 47.3746V40.107C90.0599 40.107 90.0457 39.8779 90.0315 39.7215C90.6334 39.505 91.2671 39.3897 91.9069 39.3802C95.0825 39.3802 95.4269 42.322 95.4269 43.5875C95.4269 46.2466 94.1109 47.8375 91.9069 47.8375Z" fill="black"/>
<path d="M98.9897 32.98V47.3226C98.9897 48.7524 99.6786 49.4476 101.093 49.4476C101.554 49.4446 102.01 49.36 102.442 49.1979L102.65 49.1205L102.213 47.6496L101.971 47.746C101.765 47.8215 101.547 47.8594 101.328 47.8581C100.811 47.8581 100.772 47.3668 100.772 47.2151V32.98H98.9897Z" fill="black"/>
<path d="M110.866 38.0044L107.847 47.2722L104.33 38.0044H102.334L107.049 49.7796C106.551 50.9709 105.693 52.2569 104.235 52.7657L103.981 52.8557L104.706 54.3061L104.897 54.246C107.009 53.5983 108.436 51.2821 109.068 49.3277L112.762 38.0044H110.866Z" fill="black"/>
<path d="M123.908 42.997C123.908 40.5907 122.716 37.7832 119.35 37.7832C115.955 37.7832 114.75 40.8735 114.75 43.5199C114.75 46.4428 116.375 49.3941 120.011 49.3941C121.029 49.4034 122.038 49.196 122.97 48.7858C122.911 48.6278 122.717 48.1175 122.654 47.9737C121.909 48.261 121.119 48.4134 120.32 48.424C118.293 48.424 116.104 47.2675 116.029 44.0223V43.9023H123.844L123.904 42.9985L123.908 42.997ZM122.618 42.9338H116.059V42.8168C116.059 40.3853 117.391 38.7533 119.377 38.7533C121.774 38.7533 122.624 40.9415 122.624 42.8168L122.618 42.9338Z" fill="black"/>
<path d="M130.384 37.7829C132.847 37.7829 134.261 39.1211 134.261 41.4547V49.1442H133.11V41.7659C133.11 39.791 132.113 38.7467 130.225 38.7467C129.097 38.7715 127.986 39.0219 126.957 39.4829L126.882 39.5145L126.932 40.2697V49.1379H125.78V40.3108C125.762 39.8497 125.72 39.3899 125.656 38.9331C126.899 38.3959 128.697 37.7734 130.384 37.7734" fill="black"/>
<path d="M145.068 42.997C145.068 40.5907 143.875 37.7832 140.512 37.7832C137.115 37.7832 135.909 40.8735 135.909 43.5199C135.909 46.4428 137.535 49.3941 141.169 49.3941C142.187 49.4036 143.196 49.1963 144.128 48.7858C144.071 48.6278 143.875 48.1175 143.823 47.9737C143.077 48.261 142.286 48.4134 141.487 48.424C139.461 48.424 137.271 47.2675 137.195 44.0223V43.9023H145.008L145.068 42.9985V42.997ZM143.782 42.9338H137.219V42.8168C137.219 40.3853 138.551 38.7533 140.537 38.7533C142.935 38.7533 143.785 40.9415 143.785 42.8168L143.782 42.9338Z" fill="black"/>
<path d="M150.949 37.7832C151.324 37.787 151.697 37.8266 152.064 37.9017C152.004 38.0976 151.797 38.7564 151.748 38.8986C151.393 38.8363 151.033 38.803 150.672 38.7991C149.802 38.7992 148.941 38.98 148.144 39.3299L148.072 39.3615L148.122 40.2084V49.1444H146.972V40.2463C146.972 39.8244 146.879 39.0945 146.849 38.8449C148.124 38.2872 149.5 37.7769 150.939 37.7769" fill="black"/>
<path d="M172.461 38.0264C172.366 38.3234 168.723 49.5124 168.723 49.5124C168.091 51.4589 166.694 53.753 164.647 54.4355L164.206 53.5523C165.81 52.9377 166.754 51.5079 167.3 50.1997C167.3 50.1997 163.001 39.314 162.493 38.0264H163.808C163.865 38.1749 167.804 48.574 167.804 48.574C167.804 48.574 171.181 38.1859 171.232 38.0264H172.461Z" fill="black"/>
<path d="M157.497 48.1915C156.063 47.964 154.826 47.7696 154.826 46.7806C154.826 46.2292 155.216 45.918 155.527 45.6747L155.568 45.6431H155.619C155.913 45.6878 156.211 45.71 156.508 45.7094C158.992 45.7094 160.725 44.0694 160.725 41.7201C160.706 40.7027 160.294 39.732 159.577 39.0105L159.518 38.9473H161.563L161.202 38.0231H158.324L157.722 37.9377L157.458 37.8856C157.147 37.8156 156.829 37.7781 156.51 37.7734C154.014 37.7734 152.27 39.3944 152.27 41.7233C152.258 42.509 152.486 43.2796 152.923 43.9329C153.36 44.5862 153.985 45.0912 154.715 45.3808C154.388 45.6683 154.111 46.0098 153.898 46.3904L153.884 46.4156C153.857 46.4694 153.834 46.5199 153.816 46.5641C153.799 46.6084 153.788 46.6321 153.775 46.6668C153.758 46.7155 153.745 46.7651 153.734 46.8154C153.712 46.9086 153.701 47.004 153.699 47.0997C153.696 47.3396 153.748 47.577 153.851 47.7936C153.954 48.0104 154.105 48.2005 154.293 48.3495L154.383 48.4237C153.798 48.6263 153.245 48.9143 152.743 49.2785L152.586 49.4049C152.254 49.6505 151.985 49.9708 151.799 50.3395C151.614 50.7083 151.518 51.1156 151.519 51.5283C151.519 53.7544 154.219 54.5444 156.531 54.5444C157.388 54.5444 161.678 54.3864 161.678 51.2123C161.678 48.8598 159.457 48.5075 157.497 48.1978V48.1915ZM153.418 41.728C153.418 39.9063 154.63 38.7261 156.508 38.7261C158.357 38.7261 159.55 39.9032 159.55 41.728C159.55 43.5528 158.357 44.7488 156.508 44.7488C154.66 44.7488 153.418 43.5338 153.418 41.728ZM156.526 53.5458C154.767 53.5458 152.712 52.9739 152.712 51.3624C152.712 50.247 153.524 49.4396 155.197 48.8945L155.23 48.8819L155.267 48.893C155.704 48.9999 156.149 49.0775 156.597 49.1252C158.196 49.3432 160.389 49.6371 160.389 51.296C160.389 52.955 158.311 53.5458 156.526 53.5458Z" fill="black"/>
<path d="M67.7876 39.1511V49.2137H69.5713V39.1274C68.986 39.2685 68.3764 39.2766 67.7876 39.1511Z" fill="black"/>
<path d="M67.489 35.2065C67.49 35.3558 67.5211 35.5034 67.5805 35.6404C67.6399 35.7774 67.7266 35.9009 67.835 36.0035C67.9436 36.1061 68.0718 36.1857 68.2118 36.2375C68.352 36.2892 68.5011 36.312 68.6503 36.3045C69.3186 36.3045 69.8305 35.8305 69.8305 35.2065C69.8305 34.5824 69.3186 34.1147 68.6503 34.1147C67.9819 34.1147 67.489 34.5745 67.489 35.2065Z" fill="black"/>
<path d="M78.822 38.72C78.141 38.0881 77.1994 37.7721 75.9939 37.7721C74.523 37.7721 73.0221 38.3646 71.6934 38.878L71.5259 38.9507L71.548 39.1292C71.548 39.1435 71.6776 40.0867 71.6776 40.4959V49.2139H73.4597V40.4532C73.4597 40.4532 73.4392 40.1372 73.4313 39.9492C74.2007 39.6506 75.0286 39.3805 75.8201 39.3805C77.3463 39.3805 78.1189 40.2305 78.1189 41.8894V49.2139H79.8995V41.5908C79.9008 41.0523 79.8088 40.5179 79.6277 40.0108C80.5552 39.5969 81.4083 39.3789 82.2188 39.3789C83.7482 39.3789 84.5145 40.2289 84.5145 41.8878V49.2123H86.2777V41.5908C86.2777 39.1624 84.8557 37.7705 82.3705 37.7705C81.0276 37.7705 79.7826 38.2634 78.822 38.7185" fill="black"/>
<path d="M66.1824 45.4533C66.1824 46.731 65.671 47.7316 64.6483 48.4552C63.7478 49.103 62.6308 49.4264 61.2973 49.4253C60.0479 49.4313 58.8081 49.2052 57.6414 48.7585L58.1248 47.1043C59.1466 47.4859 60.2258 47.691 61.3163 47.711C62.0841 47.711 62.7161 47.553 63.2122 47.2371C63.4915 47.0705 63.7212 46.8321 63.8773 46.5468C64.0336 46.2615 64.1104 45.9396 64.1001 45.6145C64.1001 44.8076 63.5482 44.1009 62.4443 43.4942L59.3745 41.8795C58.2697 41.097 57.7177 40.08 57.7188 38.8287C57.7188 37.6311 58.1901 36.7026 59.1328 36.0433C59.967 35.4629 61.0102 35.1733 62.2626 35.1743C63.2454 35.1743 64.3513 35.3897 65.5805 35.8205L64.9943 37.4162C64.1227 37.0841 63.2 36.906 62.2674 36.8901C60.6116 36.8901 59.7837 37.5221 59.7837 38.786C59.7837 39.4865 60.3356 40.1184 61.4395 40.6819C63.3639 41.6626 64.394 42.2007 64.5298 42.2966C65.6326 43.1035 66.184 44.1535 66.184 45.447" fill="black"/>
<path d="M106.409 64.3371C106.199 64.3469 105.99 64.3094 105.796 64.2274C105.603 64.1454 105.431 64.0208 105.292 63.8631H105.273L105.177 64.2644H104.769V59.166L105.376 59.1265V60.2577V60.7727L105.388 60.7806C105.533 60.6366 105.706 60.5238 105.896 60.4492C106.087 60.3748 106.29 60.3402 106.494 60.3477C107.39 60.3477 107.959 60.8691 107.959 62.3274C107.959 63.7857 107.398 64.3371 106.423 64.3371H106.409ZM106.333 60.9023C106.15 60.8939 105.967 60.9314 105.801 61.0113C105.636 61.0914 105.493 61.2113 105.385 61.3605V63.3543C105.489 63.5084 105.631 63.6329 105.797 63.716C105.963 63.7989 106.148 63.8376 106.333 63.8283C106.932 63.8283 107.333 63.5376 107.333 62.3432C107.333 61.174 106.96 60.9039 106.327 60.9039" fill="#00B9F1"/>
<path d="M110.138 64.326L110.157 64.2612L108.472 60.4141H109.183L110.28 63.22L110.462 63.7035H110.479L110.623 63.2074L111.506 60.4251H112.165L110.752 64.3481C110.479 65.0527 110.106 65.296 109.57 65.296C109.366 65.2979 109.163 65.2559 108.976 65.1728L109.033 64.7162C109.169 64.7829 109.317 64.818 109.468 64.8189C109.763 64.8189 109.97 64.7036 110.138 64.3291" fill="#00B9F1"/>
<path fill-rule="evenodd" clip-rule="evenodd" d="M147.072 58.1421C142.885 55.3488 137.425 53.6567 131.449 53.6567C125.474 53.6567 120.015 55.3488 115.83 58.1421C119.993 56.7581 124.861 55.9002 131.449 55.9002C138.038 55.9002 142.908 56.7581 147.072 58.1421Z" fill="#00B9F1"/>
<path d="M129.056 59.5957C128.74 59.5957 128.591 59.8453 128.55 60.1487C128.504 60.4852 128.327 61.6512 128.288 61.9482C128.264 62.1252 128.252 62.31 128.079 62.3859C127.907 62.4617 127.699 62.3464 127.52 62.1947L124.697 59.79C124.551 59.6641 124.365 59.5951 124.172 59.5957C123.772 59.5957 123.382 59.8438 123.382 60.4489V64.2044C123.379 64.2657 123.388 64.3268 123.41 64.3843C123.431 64.4418 123.464 64.4944 123.506 64.5388C123.548 64.5831 123.599 64.6185 123.656 64.6425C123.712 64.6665 123.773 64.6786 123.834 64.6783C123.957 64.6818 124.076 64.6376 124.167 64.5546C124.258 64.4718 124.313 64.357 124.321 64.2344C124.321 64.2344 124.611 62.4443 124.648 62.2452C124.689 62.013 124.725 61.8313 124.949 61.7618C125.174 61.6923 125.343 61.8155 125.629 62.0667C125.915 62.3179 128.291 64.4619 128.291 64.4619C128.367 64.5355 128.456 64.5929 128.555 64.6301C128.654 64.6673 128.759 64.6837 128.865 64.6783C129.098 64.6783 129.523 64.5835 129.523 63.8678V60.1329C129.523 59.7853 129.309 59.5957 129.049 59.5957" fill="#00B9F1"/>
<path d="M146.098 63.5961C144.024 64.0433 141.649 63.5661 141.649 62.0984C141.649 60.9924 142.678 60.5374 143.488 60.4726C144.338 60.4047 145.003 60.5832 145.345 60.9371C145.56 61.1599 145.503 61.4617 145.081 61.4869C144.694 61.5106 143.975 61.5328 143.365 61.5565C143.022 61.5691 142.84 61.7524 142.84 61.9988C142.84 62.1948 142.987 62.4175 143.381 62.4207C143.945 62.4207 145.379 62.4317 146.092 62.4333C146.566 62.4333 146.793 62.1711 146.793 61.6307C146.793 60.7744 146.018 59.4741 143.746 59.4741C141.692 59.4741 140.197 60.4995 140.197 62.1758C140.197 64.5457 143.695 65.2772 146.258 64.3877C146.501 64.3055 146.721 64.1302 146.651 63.8584C146.59 63.6183 146.392 63.5266 146.098 63.5898" fill="#00B9F1"/>
<path d="M122.016 63.5961C119.941 64.0433 117.566 63.5661 117.566 62.0984C117.566 60.9924 118.595 60.5374 119.407 60.4726C120.255 60.4047 120.921 60.5832 121.263 60.9371C121.478 61.1599 121.421 61.4617 120.998 61.4869C120.611 61.5106 119.892 61.5328 119.284 61.5565C118.941 61.5691 118.758 61.7524 118.758 61.9988C118.758 62.1948 118.905 62.4175 119.298 62.4207C119.864 62.4207 121.298 62.4317 122.011 62.4333C122.485 62.4333 122.712 62.1711 122.712 61.6307C122.712 60.7744 121.935 59.4741 119.663 59.4741C117.609 59.4741 116.115 60.4995 116.115 62.1758C116.115 64.5457 119.614 65.2772 122.177 64.3877C122.42 64.3055 122.64 64.1302 122.568 63.8584C122.507 63.6183 122.311 63.5266 122.016 63.5898" fill="#00B9F1"/>
<path d="M138.088 61.3111C138.134 62.6067 138.256 63.681 138.29 64.0586C138.335 64.5437 138.586 64.6827 138.839 64.6827C139.091 64.6827 139.336 64.5563 139.382 64.0634C139.418 63.6478 139.54 62.3649 139.602 61.0963C139.604 61.0838 139.603 61.0708 139.598 61.059C139.594 61.047 139.587 61.0362 139.578 61.0277C139.568 61.0193 139.557 61.0133 139.544 61.0103C139.532 61.0075 139.519 61.0076 139.507 61.0109L138.156 61.2305C138.137 61.2336 138.12 61.2433 138.107 61.2582C138.095 61.273 138.088 61.2918 138.088 61.3111Z" fill="#00B9F1"/>
<path d="M138.842 59.4741C138.737 59.4678 138.632 59.4836 138.534 59.5206C138.436 59.5575 138.346 59.6147 138.272 59.6885C138.197 59.7623 138.139 59.8511 138.101 59.9489C138.063 60.0467 138.046 60.1514 138.052 60.2562C138.052 60.3115 138.06 60.4647 138.068 60.6559C138.068 60.6673 138.071 60.6782 138.077 60.6883C138.082 60.6984 138.089 60.7072 138.098 60.7145C138.106 60.7218 138.116 60.7272 138.127 60.7305C138.138 60.7336 138.15 60.7346 138.161 60.7333L139.57 60.5042C139.589 60.5012 139.606 60.4919 139.618 60.4778C139.63 60.4636 139.638 60.4456 139.638 60.4268C139.638 60.3604 139.638 60.2925 139.638 60.2609C139.643 60.1551 139.625 60.0494 139.587 59.9508C139.548 59.852 139.489 59.7626 139.414 59.6882C139.339 59.6138 139.248 59.556 139.149 59.5185C139.05 59.4811 138.944 59.4649 138.839 59.471" fill="#00B9F1"/>
<path d="M136.777 61.5407C136.303 61.5407 134.856 61.5517 133.933 61.5533C133.483 61.5533 133.37 61.7966 133.37 61.9973C133.37 62.1711 133.491 62.3954 133.911 62.4175C134.551 62.4523 135.364 62.4902 135.74 62.5092C136.246 62.5345 136.254 62.7952 136.083 63.0179C135.739 63.465 134.903 63.7589 134.029 63.7589C132.897 63.7589 131.65 63.1127 131.65 62.0905C131.65 61.1331 132.716 60.0761 135.887 60.5216C136.167 60.5611 136.442 60.5106 136.51 60.253C136.578 59.9955 136.404 59.8012 136.044 59.708C135.391 59.5414 134.719 59.4623 134.045 59.4726C131.909 59.4726 130.198 60.4932 130.198 62.1395C130.198 63.8964 131.904 64.7574 134.029 64.7574C136.399 64.7574 137.56 63.465 137.56 62.3354C137.56 61.7603 137.268 61.5454 136.77 61.5454" fill="#00B9F1"/>
<path d="M31.308 33.7561C33.7177 33.7561 35.6712 31.8027 35.6712 29.393C35.6712 26.9832 33.7177 25.0298 31.308 25.0298C28.8983 25.0298 26.9448 26.9832 26.9448 29.393C26.9448 31.8027 28.8983 33.7561 31.308 33.7561Z" fill="white"/>
<path d="M31.3215 33.7583C33.7401 33.7583 35.7007 31.7977 35.7007 29.3792C35.7007 26.9606 33.7401 25 31.3215 25C28.903 25 26.9424 26.9606 26.9424 29.3792C26.9424 31.7977 28.903 33.7583 31.3215 33.7583Z" fill="url(#paint0_linear_1149_1883)"/>
<path d="M27.9265 27.466C27.9265 28.7859 29.4715 29.8549 31.3769 29.8549C33.2824 29.8549 34.8274 28.7859 34.8274 27.466C34.8274 26.1461 32.9576 25.1288 31.3769 25.0772C30.0349 25.0292 27.9265 26.1474 27.9265 27.466Z" fill="url(#paint1_linear_1149_1883)" fill-opacity="0.2"/>
<path opacity="0.3" d="M31.3215 25.0776C28.9437 25.0776 27.0161 27.0052 27.0161 29.383C27.0161 31.7608 28.9437 33.6883 31.3215 33.6883C33.6993 33.6883 35.6268 31.7608 35.6268 29.383V29.3301C35.5961 31.6476 33.6931 33.5001 31.3756 33.4694C29.0581 33.4386 27.2055 31.5357 27.2363 29.2182C27.2671 26.9449 29.1024 25.1084 31.3756 25.0789H31.3215" fill="white"/>
<path d="M31.8591 58.4942C36.1989 58.4942 39.717 54.9761 39.717 50.6362C39.717 46.2965 36.1989 42.7783 31.8591 42.7783C27.5193 42.7783 24.0012 46.2965 24.0012 50.6362C24.0012 54.9761 27.5193 58.4942 31.8591 58.4942Z" fill="url(#paint2_linear_1149_1883)"/>
<path opacity="0.5" d="M31.8579 58.4942C36.1977 58.4942 39.7158 54.9761 39.7158 50.6362C39.7158 46.2965 36.1977 42.7783 31.8579 42.7783C27.5181 42.7783 24 46.2965 24 50.6362C24 54.9761 27.5181 58.4942 31.8579 58.4942Z" fill="url(#paint3_radial_1149_1883)"/>
<path opacity="0.3" d="M38.4181 47.6387C38.4181 50.1395 35.5556 52.1667 32.0215 52.1667C28.4874 52.1667 25.625 50.1395 25.625 47.6387C25.625 45.138 29.2317 42.9803 32.0215 43.0357C34.8114 43.091 38.4181 45.138 38.4181 47.6387Z" fill="url(#paint4_linear_1149_1883)" fill-opacity="0.5"/>
<path opacity="0.1" d="M31.8554 43.0361C27.6571 43.0349 24.2546 46.4372 24.2534 50.6356C24.2522 54.8339 27.6547 58.2365 31.853 58.2377C36.0513 58.239 39.4538 54.8364 39.455 50.6381V50.6368V50.5435C39.4058 54.6385 36.0464 57.9179 31.9514 57.8686C27.8564 57.8195 24.5769 54.4601 24.6261 50.3651C24.6741 46.339 27.9265 43.0878 31.9514 43.0398H31.8554" fill="white"/>
<path d="M43.9782 54.2323C50.0097 54.2323 54.8991 49.3429 54.8991 43.3115C54.8991 37.2801 50.0097 32.3906 43.9782 32.3906C37.9468 32.3906 33.0574 37.2801 33.0574 43.3115C33.0574 49.3429 37.9468 54.2323 43.9782 54.2323Z" fill="url(#paint5_linear_1149_1883)"/>
<path opacity="0.3" d="M43.9782 54.2323C50.0097 54.2323 54.8991 49.3429 54.8991 43.3115C54.8991 37.2801 50.0097 32.3906 43.9782 32.3906C37.9468 32.3906 33.0574 37.2801 33.0574 43.3115C33.0574 49.3429 37.9468 54.2323 43.9782 54.2323Z" fill="url(#paint6_radial_1149_1883)"/>
<path opacity="0.3" fill-rule="evenodd" clip-rule="evenodd" d="M39.2965 53.1801C35.4856 51.3719 33.0561 47.529 33.0574 43.3111C33.0574 43.1634 33.0574 43.0171 33.066 42.8706C37.3578 43.5411 40.2941 47.5635 39.6237 51.8553C39.5523 52.3056 39.4441 52.7483 39.2965 53.1801Z" fill="url(#paint7_linear_1149_1883)"/>
<path d="M43.9783 32.7139C48.6858 32.6352 52.5028 35.6379 52.5028 39.3159C52.5028 42.9939 48.6895 45.9757 43.9783 45.9757C39.2669 45.9757 35.4548 42.9939 35.4548 39.3159C35.4548 35.6379 39.9078 32.7803 43.9783 32.7139Z" fill="url(#paint8_linear_1149_1883)" fill-opacity="0.7"/>
<path opacity="0.1" d="M43.9782 32.7139C38.0933 32.7139 33.323 37.4842 33.323 43.3691C33.323 49.2538 38.0933 54.0241 43.9782 54.0241C49.863 54.0241 54.6332 49.2538 54.6332 43.3691V43.3678V43.2373C54.562 48.9783 49.8506 53.574 44.1098 53.5038C38.3689 53.4324 33.772 48.7212 33.8433 42.9803C33.9134 37.3403 38.4685 32.784 44.1098 32.7139H43.9782Z" fill="white"/>
</g>
<rect x="0.5" y="0.5" width="199" height="89" rx="7.5" stroke="#2C5D60"/>
<defs>
<linearGradient id="paint0_linear_1149_1883" x1="28.4962" y1="32.5579" x2="34.3871" y2="25.9301" gradientUnits="userSpaceOnUse">
<stop stop-color="#A7DF33"/>
<stop offset="0.03" stop-color="#B9E74C" stop-opacity="0.93"/>
<stop offset="0.08" stop-color="#C6ED5E" stop-opacity="0.89"/>
<stop offset="0.13" stop-color="#CEF168" stop-opacity="0.86"/>
<stop offset="0.25" stop-color="#D0F26B" stop-opacity="0.85"/>
<stop offset="0.38" stop-color="#CCEF62" stop-opacity="0.86"/>
<stop offset="0.58" stop-color="#C0E64B" stop-opacity="0.9"/>
<stop offset="0.81" stop-color="#AED824" stop-opacity="0.95"/>
<stop offset="1" stop-color="#9CCB00"/>
</linearGradient>
<linearGradient id="paint1_linear_1149_1883" x1="33.2222" y1="25.6038" x2="29.5897" y2="29.3937" gradientUnits="userSpaceOnUse">
<stop offset="0.06" stop-color="#FFFFFD"/>
<stop offset="0.17" stop-color="#FDFFC8" stop-opacity="0.95"/>
<stop offset="0.27" stop-color="#FBFF99" stop-opacity="0.91"/>
<stop offset="0.39" stop-color="#F9FF72" stop-opacity="0.88"/>
<stop offset="0.5" stop-color="#F8FF51" stop-opacity="0.85"/>
<stop offset="0.61" stop-color="#F7FF38" stop-opacity="0.83"/>
<stop offset="0.73" stop-color="#F7FF26" stop-opacity="0.81"/>
<stop offset="0.86" stop-color="#F6FF1B" stop-opacity="0.8"/>
<stop offset="1" stop-color="#FAFF80" stop-opacity="0.84"/>
</linearGradient>
<linearGradient id="paint2_linear_1149_1883" x1="27.9407" y1="56.6839" x2="36.036" y2="44.1898" gradientUnits="userSpaceOnUse">
<stop stop-color="#30B4FF"/>
<stop offset="0.09" stop-color="#2AC0FF"/>
<stop offset="0.3" stop-color="#1ED6FF"/>
<stop offset="0.49" stop-color="#17E3FF"/>
<stop offset="0.67" stop-color="#15E8FF"/>
<stop offset="1" stop-color="#31ABFF"/>
</linearGradient>
<radialGradient id="paint3_radial_1149_1883" cx="0" cy="0" r="1" gradientUnits="userSpaceOnUse" gradientTransform="translate(31.8579 50.6362) scale(7.85789)">
<stop offset="0.33" stop-color="white" stop-opacity="0.6"/>
<stop offset="0.42" stop-color="#F2F9FF" stop-opacity="0.59"/>
<stop offset="0.57" stop-color="#CEE9FF" stop-opacity="0.55"/>
<stop offset="0.75" stop-color="#94D0FF" stop-opacity="0.5"/>
<stop offset="0.95" stop-color="#45ACFF" stop-opacity="0.42"/>
<stop offset="1" stop-color="#30A3FF" stop-opacity="0.4"/>
</radialGradient>
<linearGradient id="paint4_linear_1149_1883" x1="36.5302" y1="44.9372" x2="26.8935" y2="50.8391" gradientUnits="userSpaceOnUse">
<stop stop-color="white" stop-opacity="0.2"/>
<stop offset="1" stop-color="white" stop-opacity="0.7"/>
</linearGradient>
<linearGradient id="paint5_linear_1149_1883" x1="37.1876" y1="53.7634" x2="50.6917" y2="32.9783" gradientUnits="userSpaceOnUse">
<stop stop-color="#F08804"/>
<stop offset="0.04" stop-color="#F1930F"/>
<stop offset="0.24" stop-color="#F8C641"/>
<stop offset="0.4" stop-color="#FCE55F"/>
<stop offset="0.48" stop-color="#FDF16B"/>
<stop offset="0.71" stop-color="#FDEE6B"/>
<stop offset="0.77" stop-color="#FDEB69"/>
<stop offset="0.83" stop-color="#FDE062"/>
<stop offset="0.88" stop-color="#FDCE57"/>
<stop offset="0.92" stop-color="#FDB547"/>
<stop offset="0.97" stop-color="#FD9532"/>
<stop offset="1" stop-color="#FD7C22"/>
</linearGradient>
<radialGradient id="paint6_radial_1149_1883" cx="0" cy="0" r="1" gradientUnits="userSpaceOnUse" gradientTransform="translate(43.9782 43.3115) scale(10.9208)">
<stop offset="0.05" stop-color="#FDEE6B"/>
<stop offset="0.25" stop-color="#FDEB69"/>
<stop offset="0.42" stop-color="#FDE062"/>
<stop offset="0.59" stop-color="#FDCE57"/>
<stop offset="0.75" stop-color="#FDB547"/>
<stop offset="0.9" stop-color="#FD9532"/>
<stop offset="1" stop-color="#FD7C22"/>
</radialGradient>
<linearGradient id="paint7_linear_1149_1883" x1="35.0218" y1="48.834" x2="45.143" y2="41.7746" gradientUnits="userSpaceOnUse">
<stop stop-color="#FA7237"/>
<stop offset="0.22" stop-color="#E39358"/>
</linearGradient>
<linearGradient id="paint8_linear_1149_1883" x1="46.0786" y1="37.7988" x2="36.7311" y2="45.0748" gradientUnits="userSpaceOnUse">
<stop offset="0.07" stop-color="white" stop-opacity="0.4"/>
<stop offset="0.98" stop-color="#FFD600"/>
</linearGradient>
</defs>
</svg>
