<svg width="150" height="150" viewBox="0 0 150 150" fill="none" xmlns="http://www.w3.org/2000/svg">
    <path d="M149.928 47.4818V17.7967C149.928 7.9977 141.892 0 132.046 0H102.148C97.4421 0 92.8089 1.87333 89.5512 5.1877L77.9681 16.7159C77.389 7.42129 69.6429 0 60.1593 0H17.8813C8.03571 0 0 7.9977 0 17.7967V59.8747C0 69.3134 7.45656 77.0229 16.7954 77.5993L5.21236 89.1275C1.88224 92.4419 0 97.0532 0 101.736V131.494C0 141.293 8.03571 149.29 17.8813 149.29H47.7799C52.4855 149.29 57.1187 147.417 60.4488 144.103L72.0319 132.574C72.611 141.869 80.3571 149.29 89.8407 149.29H132.119C141.964 149.29 150 141.293 150 131.494V89.3437C150 79.9049 142.543 72.1234 133.205 71.619L144.788 60.0908C148.045 56.7765 149.928 52.1652 149.928 47.4818ZM17.8813 71.547C11.3658 71.547 6.08108 66.2872 6.08108 59.8747V17.7967C6.08108 11.3121 11.3658 6.05231 17.8813 6.05231H60.1593C66.6747 6.05231 71.9595 11.3121 71.9595 17.7967V22.7682L22.8764 71.547H17.8813ZM143.847 89.3437V131.422C143.847 137.906 138.562 143.166 132.046 143.166H89.7683C83.2529 143.166 77.9681 137.906 77.9681 131.422V89.3437C77.9681 82.859 83.2529 77.5993 89.7683 77.5993H132.046C138.562 77.5993 143.847 82.859 143.847 89.3437ZM143.847 47.4818C143.847 50.58 142.616 53.6062 140.372 55.7677L124.517 71.547H89.7683C79.9228 71.547 71.8871 79.5447 71.8871 89.3437V123.928L56.0328 139.708C53.861 141.869 50.8205 143.166 47.7075 143.166H17.8813C11.3658 143.166 6.08108 137.906 6.08108 131.494V101.736C6.08108 98.6383 7.31178 95.6121 9.55598 93.4506L93.8224 9.51078C95.9942 7.34924 99.0348 6.05231 102.148 6.05231H132.046C138.562 6.05231 143.847 11.3121 143.847 17.7967V47.4818Z" fill="#19292C"/>
</svg>
