<svg width="135" height="35" viewBox="0 0 135 35" fill="none" xmlns="http://www.w3.org/2000/svg">
    <path d="M49.5255 23.2037L60.5367 12.1679H50.049V9.29492H64.5392V12.4045L53.5618 23.3896H64.5392V26.195H49.5086V23.2037H49.5255Z" fill="white"/>
    <path d="M82.4746 17.5253C82.4746 15.7508 82.1368 14.2298 81.4444 12.9454C80.7858 11.6441 79.8569 10.647 78.6409 9.97095C77.4419 9.26115 76.0739 8.90625 74.5202 8.90625C72.9665 8.90625 71.531 9.27805 70.3319 10.0217C69.1666 10.7484 68.2377 11.7793 67.5791 13.1313C66.9373 14.4833 66.6165 16.0212 66.6165 17.7788C66.6165 19.5364 66.9542 21.0405 67.6129 22.3925C68.2715 23.7107 69.2004 24.7585 70.3994 25.5021C71.6154 26.2288 73.0002 26.5837 74.554 26.5837C76.817 26.5837 78.5565 26.0767 79.8062 25.0458C81.0391 23.998 81.9004 22.7474 82.3564 21.2771L79.0631 20.8884C78.7592 21.6996 78.2694 22.4094 77.5601 23.0347C76.8508 23.6262 75.8544 23.9304 74.554 23.9304C73.2536 23.9304 72.0883 23.4234 71.227 22.4263C70.3994 21.4292 69.9603 20.1279 69.9266 18.5562H82.4577C82.4577 18.3027 82.4746 17.9647 82.4746 17.5253ZM69.9772 16.055C70.1292 14.8044 70.5852 13.7397 71.3452 12.8947C72.1389 12.0159 73.186 11.5934 74.5033 11.5934C75.8206 11.5934 76.9521 11.999 77.7459 12.844C78.5396 13.689 78.9956 14.7706 79.1476 16.0381L69.9772 16.055Z" fill="white"/>
    <path d="M103.821 8.90625C104.801 8.90625 105.713 9.12595 106.574 9.58225C107.452 10.0048 108.145 10.6808 108.685 11.5934C109.226 12.506 109.479 13.6383 109.479 14.9903V26.195H106.22V15.9874C106.22 14.4495 105.933 13.351 105.358 12.6919C104.784 12.0159 103.923 11.661 102.774 11.661C102.099 11.661 101.457 11.8638 100.883 12.2694C100.309 12.675 99.8358 13.2665 99.4812 14.0608C99.1097 14.8213 98.9408 15.7677 98.9408 16.8831V26.195H95.6813V15.9874C95.6813 14.4495 95.3942 13.351 94.82 12.6919C94.2458 12.0159 93.3845 11.661 92.2361 11.661C91.5606 11.661 90.9188 11.8638 90.3446 12.2694C89.7704 12.675 89.2975 13.2665 88.9429 14.0608C88.5713 14.8551 88.4024 15.8015 88.4024 16.9V26.195H85.143V9.29495H88.2167V11.5596H88.3518C88.9767 10.647 89.7029 9.97095 90.5304 9.54845C91.3748 9.12595 92.3037 8.90625 93.2832 8.90625C94.3303 8.90625 95.2929 9.14285 96.1542 9.61605C97.0324 10.0724 97.691 10.7653 98.1639 11.6948C98.9239 10.7484 99.7683 10.0555 100.663 9.61605C101.575 9.14285 102.622 8.90625 103.821 8.90625Z" fill="white"/>
    <path d="M127.617 13.1314C126.975 11.7794 126.08 10.7485 124.898 10.0218C123.75 9.27816 122.432 8.90636 120.929 8.90636C119.781 8.90636 118.751 9.12606 117.856 9.54856C116.977 9.97107 116.302 10.5457 115.846 11.2724H115.711V3.02515H112.451V26.1951H115.559V24.015H115.694C116.15 24.8093 116.825 25.4346 117.737 25.9078C118.683 26.3641 119.747 26.5838 120.929 26.5838C122.416 26.5838 123.75 26.2289 124.898 25.5022C126.063 24.7586 126.975 23.7277 127.617 22.3926C128.276 21.0406 128.614 19.5027 128.614 17.7451C128.614 15.9875 128.276 14.4665 127.617 13.1314ZM123.935 22.2912C123.057 23.3728 121.875 23.9305 120.355 23.9305C118.835 23.9305 117.704 23.3728 116.809 22.2574C115.93 21.142 115.508 19.6548 115.508 17.7451C115.508 15.8354 115.947 14.3482 116.809 13.2328C117.704 12.1174 118.886 11.5766 120.355 11.5766C121.824 11.5766 123.057 12.1343 123.935 13.2328C124.831 14.3144 125.287 15.8185 125.287 17.7451C125.287 19.6717 124.831 21.1758 123.935 22.2912Z" fill="white"/>
    <path d="M134.761 3.02515H131.501V26.1951H134.761V3.02515Z" fill="white"/>
    <path d="M35.2042 11.1371V4.17431C35.2042 1.87591 33.3296 0 31.0328 0H24.0579C22.9602 0 21.8793 0.439401 21.1194 1.2168L18.4172 3.92081C18.2821 1.74071 16.4751 0 14.2627 0H4.39993C2.10312 0 0.228516 1.87591 0.228516 4.17431V14.0439C0.228516 16.2578 1.96801 18.0662 4.14661 18.2014L1.44447 20.9054C0.667612 21.6828 0.228516 22.7644 0.228516 23.8629V30.8426C0.228516 33.141 2.10312 35.0169 4.39993 35.0169H11.3748C12.4725 35.0169 13.5534 34.5775 14.3303 33.8001L17.0324 31.0961C17.1675 33.2762 18.9746 35.0169 21.1869 35.0169H31.0497C33.3465 35.0169 35.2211 33.141 35.2211 30.8426V20.9561C35.2211 18.7422 33.4816 16.9169 31.303 16.7986L34.0052 14.0946C34.7651 13.3172 35.2042 12.2356 35.2042 11.1371ZM4.39993 16.7817C2.87998 16.7817 1.64713 15.548 1.64713 14.0439V4.17431C1.64713 2.65331 2.87998 1.4196 4.39993 1.4196H14.2627C15.7827 1.4196 17.0155 2.65331 17.0155 4.17431V5.34042L5.56523 16.7817H4.39993ZM33.7856 20.9561V30.8257C33.7856 32.3467 32.5528 33.5804 31.0328 33.5804H21.17C19.6501 33.5804 18.4172 32.3467 18.4172 30.8257V20.9561C18.4172 19.4351 19.6501 18.2014 21.17 18.2014H31.0328C32.5528 18.2014 33.7856 19.4351 33.7856 20.9561ZM33.7856 11.1371C33.7856 11.8638 33.4985 12.5736 32.975 13.0806L29.2764 16.7817H21.17C18.8732 16.7817 16.9986 18.6577 16.9986 20.9561V29.0681L13.3001 32.7692C12.7934 33.2762 12.0841 33.5804 11.3579 33.5804H4.39993C2.87998 33.5804 1.64713 32.3467 1.64713 30.8426V23.8629C1.64713 23.1362 1.93424 22.4264 2.45777 21.9194L22.1158 2.23081C22.6224 1.7238 23.3317 1.4196 24.0579 1.4196H31.0328C32.5528 1.4196 33.7856 2.65331 33.7856 4.17431V11.1371Z" fill="#8EFF95"/>
</svg>